<svg xmlns="http://www.w3.org/2000/svg" xmlns:xlink="http://www.w3.org/1999/xlink" width="241" height="285" version="1.1" viewBox="0 0 241 285"><title>proxy-inherit.svg</title><desc>Created with sketchtool.</desc><g id="misc" fill="none" fill-rule="evenodd" stroke="none" stroke-width="1"><g id="proxy-inherit.svg"><path id="Oval" stroke="#BCA68E" stroke-dasharray="5" stroke-width="2" d="M116,181 C159.630495,181 195,150.331505 195,112.5 C195,74.6684946 159.630495,44 116,44 C72.3695048,44 37,74.6684946 37,112.5 C37,150.331505 72.3695048,181 116,181 Z"/><rect id="Rectangle-2" width="127" height="48" x="52" y="96" fill="#FFF9EB" stroke="#BCA68E" stroke-width="2"/><text id="_name:-&quot;Guest&quot;-name:" fill="#8A704D" font-family="PTMono-Regular, PT Mono" font-size="14" font-weight="normal"><tspan x="59" y="116">_name: &quot;Guest&quot;</tspan> <tspan x="59" y="131">name: getter</tspan></text><rect id="Rectangle-2-Copy" width="127" height="28" x="52" y="242" fill="#FFF9EB" stroke="#BCA68E" stroke-width="2"/><text id="_name:-&quot;Admin&quot;" fill="#8A704D" font-family="PTMono-Regular, PT Mono" font-size="14" font-weight="normal"><tspan x="59" y="260">_name: &quot;Admin&quot;</tspan></text><text id="user-(proxied)" fill="#000" font-family="PTMono-Regular, PT Mono" font-size="14" font-weight="normal"><tspan x="57" y="29">user (proxied)</tspan></text><text id="original-user" fill="#000" font-family="PTMono-Regular, PT Mono" font-size="14" font-weight="normal"><tspan x="61" y="87">original user</tspan></text><path id="Line-Copy-3" fill="#EE6B47" fill-rule="nonzero" d="M114.463235,221 L114.463235,179.5 L117.463235,179.5 L117.463235,221 L125.463235,221 L115.963235,240 L106.463235,221 L114.463235,221 Z"/></g></g></svg>